<?xml version="1.0" encoding="UTF-8" standalone="no"?>
<svg
   xmlns:dc="http://purl.org/dc/elements/1.1/"
   xmlns:cc="http://creativecommons.org/ns#"
   xmlns:rdf="http://www.w3.org/1999/02/22-rdf-syntax-ns#"
   xmlns:svg="http://www.w3.org/2000/svg"
   xmlns="http://www.w3.org/2000/svg"
   xmlns:sodipodi="http://sodipodi.sourceforge.net/DTD/sodipodi-0.dtd"
   xmlns:inkscape="http://www.inkscape.org/namespaces/inkscape"
   id="svg2"
   version="1.1"
   inkscape:version="0.48.1 "
   width="402"
   height="402"
   sodipodi:docname="endboard.svg">
  <metadata
     id="metadata72">
    <rdf:RDF>
      <cc:Work
         rdf:about="">
        <dc:format>image/svg+xml</dc:format>
        <dc:type
           rdf:resource="http://purl.org/dc/dcmitype/StillImage" />
      </cc:Work>
    </rdf:RDF>
  </metadata>
  <defs
     id="defs70" />
  <sodipodi:namedview
     pagecolor="#ffffff"
     bordercolor="#666666"
     borderopacity="1"
     objecttolerance="10"
     gridtolerance="10"
     guidetolerance="10"
     inkscape:pageopacity="0"
     inkscape:pageshadow="2"
     inkscape:window-width="1024"
     inkscape:window-height="712"
     id="namedview68"
     showgrid="false"
     fit-margin-top="0"
     fit-margin-left="0"
     fit-margin-right="0"
     fit-margin-bottom="0"
     inkscape:zoom="0.70686342"
     inkscape:cx="442.4637"
     inkscape:cy="167.79634"
     inkscape:window-x="-4"
     inkscape:window-y="-4"
     inkscape:window-maximized="1"
     inkscape:current-layer="svg2" />
  <polygon
     points="100,200 100,100 100,100 200,100 200,200 "
     style="fill:#00ffff;stroke:#000000;stroke-width:2"
     id="polygon4"
     transform="translate(-99,-99)" />
  <text
     x="41"
     y="66"
     font-size="40"
     id="text6"
     style="font-size:40px;fill:#000000;font-family:Verdana">1</text>
  <polygon
     points="200,200 200,100 200,100 300,100 300,200 "
     style="fill:#64ff64;stroke:#000000;stroke-width:2"
     id="polygon8"
     transform="translate(-99,-99)" />
  <text
     x="141"
     y="66"
     font-size="40"
     id="text10"
     style="font-size:40px;fill:#000000;font-family:Verdana">3</text>
  <polygon
     points="300,200 300,100 300,100 400,100 400,200 "
     style="fill:#64ff64;stroke:#000000;stroke-width:2"
     id="polygon12"
     transform="translate(-99,-99)" />
  <text
     x="241"
     y="66"
     font-size="40"
     id="text14"
     style="font-size:40px;fill:#000000;font-family:Verdana">6</text>
  <polygon
     points="400,200 400,100 400,100 500,100 500,200 "
     style="fill:#00ffff;stroke:#000000;stroke-width:2"
     id="polygon16"
     transform="translate(-99,-99)" />
  <text
     x="341"
     y="66"
     font-size="40"
     id="text18"
     style="font-size:40px;fill:#000000;font-family:Verdana">1</text>
  <polygon
     points="100,300 100,200 100,200 200,200 200,300 "
     style="fill:#64ff64;stroke:#000000;stroke-width:2"
     id="polygon20"
     transform="translate(-99,-99)" />
  <text
     x="41"
     y="166"
     font-size="40"
     id="text22"
     style="font-size:40px;fill:#000000;font-family:Verdana">3</text>
  <polygon
     points="200,300 200,200 200,200 300,200 300,300 "
     style="fill:#00ffff;stroke:#000000;stroke-width:2"
     id="polygon24"
     transform="translate(-99,-99)" />
  <text
     x="141"
     y="166"
     font-size="40"
     id="text26"
     style="font-size:40px;fill:#000000;font-family:Verdana">1</text>
  <polygon
     points="300,300 300,200 300,200 400,200 400,300 "
     style="fill:#64ff64;stroke:#000000;stroke-width:2"
     id="polygon28"
     transform="translate(-99,-99)" />
  <text
     x="227"
     y="166"
     font-size="40"
     id="text30"
     style="font-size:40px;fill:#000000;font-family:Verdana">48</text>
  <polygon
     points="400,300 400,200 400,200 500,200 500,300 "
     style="fill:#00ffff;stroke:#000000;stroke-width:2"
     id="polygon32"
     transform="translate(-99,-99)" />
  <text
     x="341"
     y="166"
     font-size="40"
     id="text34"
     style="font-size:40px;fill:#000000;font-family:Verdana">1</text>
  <polygon
     points="100,400 100,300 100,300 200,300 200,400 "
     style="fill:#00ffff;stroke:#000000;stroke-width:2"
     id="polygon36"
     transform="translate(-99,-99)" />
  <text
     x="41"
     y="266"
     font-size="40"
     id="text38"
     style="font-size:40px;fill:#000000;font-family:Verdana">1</text>
  <polygon
     points="200,400 200,300 200,300 300,300 300,400 "
     style="fill:#64ff64;stroke:#000000;stroke-width:2"
     id="polygon40"
     transform="translate(-99,-99)" />
  <text
     x="127"
     y="266"
     font-size="40"
     id="text42"
     style="font-size:40px;fill:#000000;font-family:Verdana">48</text>
  <polygon
     points="300,400 300,300 300,300 400,300 400,400 "
     style="fill:#64ff64;stroke:#000000;stroke-width:2"
     id="polygon44"
     transform="translate(-99,-99)" />
  <text
     x="213"
     y="266"
     font-size="40"
     id="text46"
     style="font-size:40px;fill:#000000;font-family:Verdana">192</text>
  <polygon
     points="400,400 400,300 400,300 500,300 500,400 "
     style="fill:#64ff64;stroke:#000000;stroke-width:2"
     id="polygon48"
     transform="translate(-99,-99)" />
  <text
     x="313"
     y="266"
     font-size="40"
     id="text50"
     style="font-size:40px;fill:#000000;font-family:Verdana">384</text>
  <polygon
     points="100,500 100,400 100,400 200,400 200,500 "
     style="fill:#00ffff;stroke:#000000;stroke-width:2"
     id="polygon52"
     transform="translate(-99,-99)" />
  <text
     x="41"
     y="366"
     font-size="40"
     id="text54"
     style="font-size:40px;fill:#000000;font-family:Verdana">1</text>
  <polygon
     points="200,500 200,400 200,400 300,400 300,500 "
     style="fill:#64ff64;stroke:#000000;stroke-width:2"
     id="polygon56"
     transform="translate(-99,-99)" />
  <text
     x="127"
     y="366"
     font-size="40"
     id="text58"
     style="font-size:40px;fill:#000000;font-family:Verdana">96</text>
  <polygon
     points="300,500 300,400 300,400 400,400 400,500 "
     style="fill:#64ff64;stroke:#000000;stroke-width:2"
     id="polygon60"
     transform="translate(-99,-99)" />
  <text
     x="199"
     y="366"
     font-size="40"
     id="text62"
     style="font-size:40px;fill:#000000;font-family:Verdana">1536</text>
  <polygon
     points="400,500 400,400 400,400 500,400 500,500 "
     style="fill:#64ff64;stroke:#000000;stroke-width:2"
     id="polygon64"
     transform="translate(-99,-99)" />
  <text
     x="299"
     y="366"
     font-size="40"
     id="text66"
     style="font-size:40px;fill:#000000;font-family:Verdana">3072</text>
</svg>
